<svg width="2000" height="651" viewBox="0 0 2000 651" fill="none" xmlns="http://www.w3.org/2000/svg">
<g clip-path="url(#clip0_295_1036)">
<path d="M0 324.242C0 131.4 135.253 0 319.578 0C483.22 0 606.712 107.472 636.723 260.164H506.945C482.409 173.172 410.423 112.339 320.187 112.339C210.281 112.339 127.142 197.709 127.142 324.242C127.142 450.776 210.281 536.956 321.809 536.956C415.087 536.956 487.073 479.976 509.176 388.32H638.143C611.984 546.487 487.073 650.107 320.998 650.107C135.253 650.107 0 518.098 0 324.242Z" fill="#00D37F"/>
<path d="M832.809 8.71924H709.52V641.387H832.809V8.71924Z" fill="#00D37F"/>
<path d="M1391.26 641.387H1268.58V575.89C1256.01 606.712 1208.56 650.309 1127.04 650.309C1010.04 650.309 919.801 560.073 919.801 426.442V127.345H1043.29V424.009C1043.29 493.562 1088.31 540.201 1155.63 540.201C1222.95 540.201 1267.97 493.562 1267.97 424.009V127.345H1391.46V641.387H1391.26Z" fill="#00D37F"/>
<path d="M1462.44 385.887C1462.44 226.097 1574.77 118.625 1730.51 118.625C1905.3 118.625 2016.83 256.311 1997.77 424.82H1590.59C1599.31 496.806 1661.77 541.012 1729.09 541.012C1783.64 541.012 1836.56 512.623 1859.68 462.739H1989.46C1954.58 576.701 1859.68 650.106 1727.67 650.106C1570.92 650.106 1462.44 542.634 1462.44 385.887ZM1866.77 329.109C1846.9 267.464 1796.41 227.922 1732.33 227.922C1667.44 227.922 1615.33 266.653 1596.27 329.92L1866.77 329.109Z" fill="#00D37F"/>
<path d="M337.22 142.35V175.606H330.325C262.8 175.606 211.092 216.77 198.317 280.036L197.303 285.511H160.803L162.222 277.4C177.025 195.478 242.928 142.35 330.325 142.35H337.22Z" fill="#00D37F"/>
</g>
<defs>
<clipPath id="clip0_295_1036">
<rect width="2000" height="650.107" fill="white"/>
</clipPath>
</defs>
</svg>
